sit_stand0002_filtered
version=1
nRows=59
nColumns=19
inDegrees=no
endheader
time	ground_force_r_vx	ground_force_r_vy	ground_force_r_vz	ground_force_r_px	ground_force_r_py	ground_force_r_pz	ground_torque_r_x	ground_torque_r_y	ground_torque_r_z	ground_force_l_vx	ground_force_l_vy	ground_force_l_vz	ground_force_l_px	ground_force_l_py	ground_force_l_pz	ground_torque_l_x	ground_torque_l_y	ground_torque_l_z
0.0	4.730225	-0.457764	62.561035	-7.598877	2.01416	1.693726	-32.435183	-121.440183	0.0	5.340576	-1.678467	50.354004	7.598877	1.89209	-0.457764	-37.9125	151.014924	0.0
0.0016666666666664831	3.814697	-0.152588	61.340332	-7.965088	2.01416	1.876831	-33.033271	-129.842848	0.0	5.950928	-2.593994	49.133301	6.866455	2.13623	-0.518799	-43.862811	139.919177	0.0
0.0033333333333331883	4.425049	-0.762939	61.340332	-8.148193	1.77002	1.968384	-29.084764	-132.796331	0.0	6.866455	-1.678467	46.691895	7.415771	2.258301	-0.396729	-48.832925	158.937663	0.0
0.004999999999999893	4.119873	-0.762939	63.173294	-8.331299	2.258301	1.876831	-35.954772	-131.841732	0.0	6.866455	-1.678467	46.691895	7.415771	2.01416	-0.335693	-43.604167	158.937663	0.0
0.006666666666666599	4.119873	-1.373291	63.173294	-8.148193	2.01416	1.876831	-32.090154	-128.912593	0.0	7.171631	-1.983643	46.081543	6.500244	2.13623	-0.457764	-46.851738	141.196275	0.0
0.008333333333333304	4.730225	-0.457764	61.950684	-6.866455	1.77002	2.151489	-28.813855	-110.813978	0.0	6.256104	-1.373291	47.912598	6.866455	2.258301	-0.396729	-47.548328	143.403105	0.0
0.010000000000000009	3.814697	-0.152588	63.173294	-7.232666	1.77002	1.785278	-28.210199	-114.481628	0.0	6.256104	-2.288818	49.743652	7.415771	2.13623	-0.518799	-43.344095	149.225844	0.0
0.011666666666666492	4.425049	0.152588	63.783646	-7.415771	1.77002	1.693726	-27.970635	-116.272061	0.0	5.340576	-1.678467	47.912598	7.415771	2.258301	-0.274658	-47.487659	154.888296	0.0
0.013333333333333197	5.0354	0.152588	61.950684	-7.598877	1.77002	2.151489	-28.829495	-122.667919	0.0	6.256104	-2.288818	47.302246	6.68335	2.258301	-0.518799	-48.161855	141.443952	0.0
0.014999999999999902	4.730225	-0.762939	61.950684	-7.232666	2.01416	1.693726	-32.754741	-116.709667	0.0	6.561279	-2.288818	47.302246	7.415771	2.380371	-0.396729	-50.762984	156.927823	0.0
0.016666666666666607	4.425049	1.373291	63.173294	-7.049561	2.01416	2.243042	-32.105492	-111.659853	0.0	6.866455	-1.983643	46.691895	7.415771	2.01416	-0.396729	-43.604167	158.958415	0.0
0.018333333333333313	3.814697	0.762939	60.119629	-7.232666	2.01416	1.968384	-33.703997	-120.34486	0.0	6.256104	-2.288818	45.471191	7.232666	2.13623	-0.213623	-47.416695	159.220218	0.0
0.020000000000000018	4.119873	-0.152588	61.950684	-7.415771	2.01416	1.693726	-32.723461	-119.696613	0.0	5.645752	-2.89917	47.302246	7.049561	2.258301	-0.457764	-48.120887	149.226855	0.0
0.0216666666666665	3.814697	0.457764	60.72998	-7.049561	2.01416	1.602173	-33.365264	-116.104334	0.0	6.256104	-2.89917	46.081543	7.232666	1.525879	-0.335693	-33.543626	157.153394	0.0
0.023333333333333206	4.425049	-0.762939	61.340332	-7.965088	2.13623	1.602173	-35.054913	-129.811256	0.0	6.866455	-2.89917	49.743652	7.049561	2.258301	-0.335693	-45.83704	141.902837	0.0
0.02499999999999991	4.119873	0.457764	61.340332	-7.415771	2.01416	2.059937	-33.049067	-120.919216	0.0	5.950928	-2.593994	47.912598	7.049561	1.647949	-0.335693	-34.789252	147.305653	0.0
0.026666666666666616	4.425049	-0.457764	61.950684	-7.598877	1.89209	1.602173	-30.768658	-122.636638	0.0	6.561279	-1.678467	46.691895	7.415771	2.258301	-0.518799	-48.812173	158.937663	0.0
0.02833333333333332	5.0354	-0.457764	60.72998	-7.232666	1.77002	2.059937	-29.408982	-119.071545	0.0	5.645752	-2.593994	47.912598	7.415771	1.89209	-0.579834	-39.86457	154.948965	0.0
0.029999999999999805	5.0354	-0.457764	59.509277	-7.049561	1.89209	1.968384	-32.063526	-118.437115	0.0	5.645752	-2.89917	47.302246	6.866455	2.13623	-0.457764	-45.540242	145.355887	0.0
0.03166666666666651	5.0354	-0.457764	60.119629	-6.866455	2.01416	1.602173	-33.768464	-114.189023	0.0	6.256104	-1.678467	46.081543	7.232666	1.647949	-0.396729	-36.192632	157.069288	0.0
0.033333333333333215	5.0354	0.152588	61.340332	-6.500244	1.77002	2.151489	-29.116356	-105.978047	0.0	7.171631	-2.288818	45.471191	7.232666	1.77002	-0.274658	-39.42693	159.220218	0.0
0.03499999999999992	4.119873	1.068115	59.509277	-7.049561	2.13623	1.785278	-36.117244	-118.518526	0.0	5.0354	-1.983643	47.912598	6.866455	2.380371	-0.213623	-50.015207	143.443551	0.0
0.036666666666666625	4.730225	-0.152588	61.340332	-7.049561	1.89209	1.693726	-31.090609	-114.917475	0.0	5.340576	-2.288818	47.302246	7.415771	2.13623	-0.335693	-45.519758	156.927823	0.0
0.03833333333333333	5.0354	0.152588	61.950684	-7.232666	2.01416	1.785278	-32.770382	-116.756589	0.0	5.645752	-2.593994	47.912598	7.049561	2.01416	-0.457764	-42.412341	147.305653	0.0
0.039999999999999813	4.730225	-0.457764	59.509277	-7.598877	2.01416	1.693726	-34.098526	-127.667885	0.0	6.256104	-1.678467	47.912598	6.866455	2.258301	-0.335693	-47.548328	143.423328	0.0
0.04166666666666652	5.0354	0.152588	60.72998	-6.866455	2.380371	1.876831	-39.459234	-113.073304	0.0	5.645752	-2.593994	49.133301	7.232666	2.01416	-0.457764	-41.358618	147.372593	0.0
0.043333333333333224	4.119873	-1.373291	59.509277	-7.049561	2.01416	1.419067	-34.065962	-118.388269	0.0	5.645752	-3.814697	46.081543	7.232666	1.77002	-0.396729	-38.799586	157.216474	0.0
0.04499999999999993	5.0354	-1.068115	60.72998	-7.598877	2.13623	1.876831	-35.439133	-125.069786	0.0	6.256104	-1.373291	46.691895	7.415771	2.380371	-0.396729	-51.405801	158.916912	0.0
0.046666666666666634	4.425049	1.068115	60.72998	-6.68335	2.380371	2.334595	-39.427324	-110.106093	0.0	6.256104	-1.983643	49.133301	6.500244	2.258301	-0.457764	-46.367003	132.42632	0.0
0.04833333333333334	5.0354	0.152588	59.509277	-7.415771	1.77002	1.419067	-30.012244	-124.623526	0.0	5.950928	-1.678467	44.86084	6.866455	2.258301	-0.213623	-50.76131	153.180017	0.0
0.04999999999999982	3.509521	0.152588	60.119629	-7.232666	1.77002	2.059937	-29.626967	-120.312627	0.0	5.0354	-2.288818	47.912598	7.415771	2.13623	-0.335693	-44.919666	154.928742	0.0
0.05166666666666653	4.730225	0.457764	59.509277	-7.049561	1.89209	1.785278	-32.047244	-118.485962	0.0	5.950928	-1.983643	46.081543	7.232666	2.624512	-0.335693	-57.363659	157.090315	0.0
0.05333333333333323	4.425049	0.152588	59.509277	-6.68335	2.380371	1.785278	-40.23609	-112.315833	0.0	5.950928	-2.89917	49.743652	6.500244	2.01416	-0.274658	-40.870629	130.859893	0.0
0.05499999999999994	4.730225	1.678467	59.509277	-6.866455	1.89209	1.968384	-32.047244	-115.474167	0.0	6.256104	-1.983643	46.081543	6.68335	1.89209	-0.335693	-41.490646	145.169785	0.0
0.05666666666666664	5.340576	-0.152588	58.898926	-7.415771	2.01416	1.602173	-34.48478	-125.89851	0.0	6.256104	-1.983643	47.912598	7.415771	2.624512	-0.274658	-55.19164	154.908519	0.0
0.05833333333333335	4.425049	1.068115	58.898926	-7.415771	1.647949	1.876831	-28.217811	-125.964313	0.0	6.561279	-2.593994	46.691895	7.049561	2.502441	-0.152588	-54.040931	151.156781	0.0
0.05999999999999983	5.0354	0.457764	58.288574	-7.232666	1.77002	1.876831	-30.640772	-124.108704	0.0	5.645752	-2.288818	47.302246	7.049561	2.258301	-0.213623	-48.120887	149.185887	0.0
0.061666666666666536	4.119873	1.068115	58.898926	-7.232666	1.77002	1.693726	-30.273899	-122.855505	0.0	5.645752	-2.593994	49.743652	7.232666	2.380371	-0.457764	-48.213113	145.56434	0.0
0.06333333333333324	4.425049	1.068115	59.509277	-7.049561	1.77002	2.059937	-29.979679	-118.518526	0.0	5.0354	-1.373291	47.912598	7.415771	2.13623	-0.335693	-44.919666	154.868073	0.0
0.06499999999999995	4.730225	0.152588	58.288574	-6.500244	2.13623	1.602173	-36.906872	-111.526636	0.0	5.645752	-2.288818	50.354004	6.866455	2.502441	-0.152588	-50.052955	136.507955	0.0
0.06666666666666665	4.730225	0.457764	59.509277	-7.232666	2.01416	2.059937	-34.098526	-121.562885	0.0	5.645752	-2.593994	47.912598	7.049561	2.380371	-0.396729	-50.055653	147.305653	0.0
0.06833333333333313	4.730225	1.678467	59.509277	-7.232666	1.77002	2.243042	-29.995962	-121.628013	0.0	5.950928	-2.89917	49.133301	6.866455	2.258301	-0.396729	-46.347283	139.938898	0.0
0.06999999999999984	4.425049	0.762939	58.898926	-7.415771	2.01416	1.785278	-34.435427	-125.947863	0.0	6.256104	-2.89917	47.912598	6.500244	2.258301	-0.396729	-47.548328	135.860908	0.0
0.07166666666666655	4.425049	1.373291	58.288574	-6.68335	2.01416	2.059937	-34.796008	-114.73449	0.0	6.561279	-3.509521	50.354004	7.598877	2.258301	-0.274658	-45.262197	151.130379	0.0
0.07333333333333325	4.425049	1.373291	58.898926	-7.232666	1.647949	1.968384	-28.217811	-122.871956	0.0	5.0354	-2.288818	48.522949	7.415771	2.258301	-0.274658	-46.870362	152.979953	0.0
0.07499999999999996	3.814697	1.983643	59.509277	-6.500244	1.89209	2.059937	-31.998397	-109.336603	0.0	5.645752	-2.593994	49.133301	7.232666	2.13623	-0.518799	-43.84309	147.372593	0.0
0.07666666666666666	3.814697	0.152588	58.288574	-7.232666	2.258301	1.785278	-38.951243	-124.092081	0.0	5.0354	-2.593994	48.522949	7.781982	2.380371	-0.457764	-49.386085	160.547091	0.0
0.07833333333333314	4.425049	1.983643	60.119629	-6.866455	1.77002	2.151489	-29.675317	-114.317957	0.0	5.0354	-3.204346	46.691895	7.598877	2.258301	-0.518799	-48.708415	162.96299	0.0
0.07999999999999985	5.645752	0.457764	58.288574	-7.049561	2.01416	1.51062	-34.8625	-120.967343	0.0	5.645752	-2.89917	48.522949	6.866455	2.258301	-0.030518	-46.910299	141.699135	0.0
0.08166666666666655	3.814697	1.678467	58.898926	-7.232666	2.13623	1.693726	-36.475065	-122.888407	0.0	5.340576	-3.814697	47.912598	7.049561	2.13623	-0.213623	-44.939889	147.386545	0.0
0.08333333333333326	4.119873	1.983643	60.119629	-6.68335	2.258301	1.693726	-37.781028	-111.272272	0.0	4.730225	-2.288818	46.691895	7.415771	2.502441	-0.457764	-53.916422	158.979167	0.0
0.08499999999999996	4.119873	0.152588	61.340332	-7.598877	1.77002	1.419067	-29.068968	-123.888495	0.0	5.950928	-1.678467	46.691895	7.598877	2.380371	-0.335693	-51.385049	162.859232	0.0
0.08666666666666667	4.425049	1.373291	59.509277	-6.68335	2.01416	1.968384	-34.082244	-112.380962	0.0	4.425049	-3.509521	46.691895	7.415771	2.380371	-0.213623	-51.281291	159.062173	0.0
0.08833333333333315	4.425049	-0.152588	58.288574	-6.68335	1.77002	1.602173	-30.607526	-114.651374	0.0	4.425049	-2.593994	47.302246	7.049561	2.380371	-0.457764	-50.619597	149.206371	0.0
0.08999999999999986	4.119873	1.373291	60.119629	-6.68335	1.77002	1.602173	-29.659201	-111.240038	0.0	4.730225	-2.288818	46.081543	7.232666	2.380371	-0.396729	-51.98154	157.111341	0.0
0.09166666666666656	3.509521	1.373291	59.509277	-6.866455	2.01416	1.785278	-34.033397	-115.457885	0.0	5.645752	-2.593994	47.302246	6.866455	2.13623	-0.213623	-45.540242	145.335403	0.0
0.09333333333333327	2.593994	1.373291	60.72998	-6.68335	2.13623	1.785278	-35.311495	-110.122048	0.0	5.0354	-2.593994	47.302246	7.232666	2.380371	-0.274658	-50.660565	153.077339	0.0
0.09499999999999997	2.89917	2.288818	60.119629	-7.598877	2.01416	1.876831	-33.655647	-126.516815	0.0	4.119873	-1.068115	45.471191	7.049561	2.502441	-0.274658	-55.321225	155.108138	0.0
0.09666666666666668	2.89917	1.068115	59.509277	-7.049561	2.13623	1.693726	-36.052115	-118.518526	0.0	5.0354	-2.89917	46.691895	6.317139	2.502441	-0.213623	-53.937173	135.491258	0.0
